<?xml version="1.0" encoding="UTF-8"?>
<!DOCTYPE svg PUBLIC "-//W3C//DTD SVG 1.1//EN" "http://www.w3.org/Graphics/SVG/1.1/DTD/svg11.dtd">
<!-- Creator: CorelDRAW -->
<svg xmlns="http://www.w3.org/2000/svg" xml:space="preserve" width="180mm" height="180mm" version="1.1" style="shape-rendering:geometricPrecision; text-rendering:geometricPrecision; image-rendering:optimizeQuality; fill-rule:evenodd; clip-rule:evenodd"
viewBox="0 0 18000 18000"
 xmlns:xlink="http://www.w3.org/1999/xlink"
 xmlns:xodm="http://www.corel.com/coreldraw/odm/2003">
 <defs>
  <style type="text/css">
   <![CDATA[
    .fil1 {fill:#6C0100;fill-rule:nonzero}
    .fil0 {fill:#ED0E0C;fill-rule:nonzero}
    .fil2 {fill:url(#id0)}
   ]]>
  </style>
  <linearGradient id="id0" gradientUnits="userSpaceOnUse" x1="-8225.42" y1="24988.14" x2="26224.59" y2="-13959.76">
   <stop offset="0" style="stop-opacity:1; stop-color:#ED0E0C"/>
   <stop offset="0.0980392" style="stop-opacity:1; stop-color:#EB1110"/>
   <stop offset="0.290196" style="stop-opacity:1; stop-color:#E81515"/>
   <stop offset="1" style="stop-opacity:1; stop-color:#690D0D"/>
  </linearGradient>
 </defs>
 <g id="Katman_x0020_1">
  <metadata id="CorelCorpID_0Corel-Layer"/>
  <g id="_3037943765104">
   <path class="fil0" d="M7763.28 14544.28c-521.83,0 -944.96,423.14 -944.96,945.36 0,521.81 423.13,945.35 944.96,945.35 522.21,0 945.35,-423.54 945.35,-945.35 0,-522.22 -423.14,-945.36 -945.35,-945.36z"/>
   <path class="fil1" d="M14981.1 14544.28c-522.21,0 -945.35,423.14 -945.35,945.36 0,521.81 423.14,945.35 945.35,945.35 521.81,0 944.95,-423.54 944.95,-945.35 0,-522.22 -423.14,-945.36 -944.95,-945.36z"/>
   <path class="fil0" d="M12575.29 14544.28c-522.21,0 -945.35,423.14 -945.35,945.36 0,521.81 423.14,945.35 945.35,945.35 521.81,0 944.96,-423.54 944.96,-945.35 0,-522.22 -423.15,-945.36 -944.96,-945.36z"/>
   <path class="fil1" d="M10169.48 14544.28c-522.22,0 -945.35,423.14 -945.35,945.36 0,521.81 423.13,945.35 945.35,945.35 521.82,0 945.35,-423.54 945.35,-945.35 0,-522.22 -423.53,-945.36 -945.35,-945.36z"/>
   <path class="fil2" d="M15092.4 17005.75l-7436.1 0c-742.46,0 -1346.77,-603.92 -1346.77,-1346.39 0,-742.45 604.31,-1346.77 1346.77,-1346.77l7436.1 0c742.48,0 1346.4,604.32 1346.4,1346.77 0,742.47 -603.92,1346.39 -1346.4,1346.39zm-7510.3 -5815.78l1613.21 -1098.11 764.97 1098.11 -2378.18 0zm-540.37 -218.27l-226.17 -371.83 1854.39 -1261.92 248.67 356.43 -1876.89 1277.32zm-783.12 -1287.58l1799.52 -1224.81 335.12 480.77 -1829.92 1245.33 -304.72 -501.29zm-515.5 -848.25l1748.6 -1189.69 289.33 415.65 -1774.66 1207.84 -263.27 -433.8zm-486.7 -799.7l1700.45 -1157.71 257.76 369.85 -1723.74 1173.11 -234.47 -385.25zm-441.29 -725.89l1657.03 -1127.71 208.01 298.4 -1675.97 1140.35 -189.07 -311.04zm-438.93 -721.15l1614.01 -1098.51 204.86 294.47 -1631.76 1110.73 -187.11 -306.69zm-506.02 -832.46l1563.47 -1064.56 279.47 401.43 -1588.74 1081.14 -254.2 -418.01zm-486.29 -799.7l1515.71 -1031.79 257.35 369.45 -1539 1047.58 -234.06 -385.24zm-521.04 -856.54l1464.41 -996.66 295.65 423.92 -1490.86 1014.82 -269.2 -442.08zm-486.29 -799.7l1416.65 -963.9 256.96 369.45 -1439.14 979.3 -234.47 -384.85zm-251.82 -414.45l-197.77 -324.86 1372.05 -933.9 217.1 311.82 -1391.38 946.94zm-260.92 4544.39l-204.46 0 0 -4718.86 204.46 376.95 0 4341.91zm-384.06 -5605.01l0 -69.06 1314.42 -853.78 228.14 327.21 -1347.18 916.93 -195.38 -321.3zm687.64 7503.89l-89.24 -29.49c0,0 10.26,214.33 -255.39,214.33 -265.65,0 -306.29,-439.32 255.39,-439.32l0 -428.67 306.69 0 265.25 -1215.73 -479.97 0 0 -3776.67 4960.42 9150.77 0 207.22 1683.87 0 0 632.74 -1158.11 0c-1110.73,0 -2014.24,903.9 -2014.24,2014.63 0,1110.73 903.51,2014.26 2014.24,2014.26l7436.1 0c1110.75,0 2014.26,-903.53 2014.26,-2014.26 0,-1110.73 -903.51,-2014.63 -2014.26,-2014.63l-1249.67 0 0 -632.74 2083.32 0 0 -1360.59 0 -461.43 0 -1937.28 0 -1107.18 -416.03 0 0 -188.29 -86.84 0c8.68,-192.22 8.68,-913.38 -472.08,-913.38 -480.76,0 -445.24,721.16 -427.48,913.38l-131.44 0 0 188.29 -2187.14 0 -1772.29 2405.01 -7569.11 -10224 -1822.03 1245.35 311.44 574.7 0 5284.1 -459.85 0 265.65 1215.73 388 0 0 183.54c0,0 -301.62,55.19 -334.19,475.85 4.76,229.23 160.94,419.96 369.43,469.89l0.68 -0.78c30.65,6.03 61.38,10.33 91.4,13.22 5.44,0.19 10.9,0.32 16.38,0.32 252.75,0 459.66,-202.49 476.84,-458.89zm11098.66 -76.86l1152.97 0 0 1937.28 -2543.96 0 1390.99 -1937.28z"/>
  </g>
 </g>
</svg>
