<?xml version="1.0" encoding="UTF-8"?>
<!DOCTYPE svg PUBLIC "-//W3C//DTD SVG 1.1//EN" "http://www.w3.org/Graphics/SVG/1.1/DTD/svg11.dtd">
<!-- Creator: CorelDRAW -->
<svg xmlns="http://www.w3.org/2000/svg" xml:space="preserve" width="180mm" height="180mm" version="1.1" style="shape-rendering:geometricPrecision; text-rendering:geometricPrecision; image-rendering:optimizeQuality; fill-rule:evenodd; clip-rule:evenodd"
viewBox="0 0 18000 18000"
 xmlns:xlink="http://www.w3.org/1999/xlink"
 xmlns:xodm="http://www.corel.com/coreldraw/odm/2003">
 <defs>
  <style type="text/css">
   <![CDATA[
    .str0 {stroke:#ED0010;stroke-width:447.8;stroke-miterlimit:10}
    .fil0 {fill:none;fill-rule:nonzero}
    .fil1 {fill:#76CCF3;fill-rule:nonzero}
    .fil2 {fill:#6C0100;fill-rule:nonzero}
   ]]>
  </style>
 </defs>
 <g id="Katman_x0020_1">
  <metadata id="CorelCorpID_0Corel-Layer"/>
  <g id="_1635572554048">
   <path class="fil0 str0" d="M8257.58 14791.43c282.81,1906.13 -4141.71,1964.67 -4516.11,-918.46 -1819.73,509.52 -3077.19,-1247.39 -2197.09,-2799.83 -1055.45,-720.58 -1036.01,-2822.11 63.83,-3451.99 -840.54,-895.37 179.06,-3403.35 2211.84,-2955.67 -555.03,-2014.97 2383.98,-3655.64 4449.34,-2050.42l-11.81 12176.37z"/>
   <g>
    <path class="fil0 str0" d="M3757.72 4217.8c151.04,893.7 937.82,1586.26 1835.74,1747.02"/>
    <path class="fil0 str0" d="M5593.46 3546.69c-207.6,1334.8 2033.26,1895.43 2642.11,1028.93"/>
    <path class="fil0 str0" d="M4473.83 5517.14c-3.53,468.3 -630.62,1068.49 -984.87,1208.64"/>
    <path class="fil0 str0" d="M3086.29 8248.55c551.96,278.67 564.34,1081.7 1162.06,1260.6 626.59,186.33 967.33,-506.23 1218.95,-986.05 383.46,-732.94 953,-1029.74 1782.65,-899.47 270.32,42.86 739.86,232.48 896.09,310.8"/>
    <path class="fil0 str0" d="M2459.05 8203.21c428.96,532.59 1117.55,-253.94 671.83,-715.62"/>
    <path class="fil0 str0" d="M8280.35 10979.98c-588.1,-586.2 -1503.89,75.02 -1701.11,710.67 -232.58,746.96 474.56,1356.23 225.74,2084.22 -150.86,441.91 -497.72,636.49 -942.76,563.1"/>
    <path class="fil0 str0" d="M3757.72 14248.11c-690.32,-1806.38 2731.5,-1297.7 1253.58,-4029.93"/>
    <path class="fil0 str0" d="M1518.51 11158.88c245.27,-400.68 830.89,-431.18 1257.28,-404.82 385.68,24.75 819.01,314.96 981.93,360.3"/>
   </g>
   <path class="fil0 str0" d="M17167.62 10219l64.48 -1969.61 -1194.55 -39.59c-72.31,-408.93 -185.49,-804.66 -335.23,-1179.78l1095.47 -600.2 -948.47 -1728.89 -1164.87 638.13c-251.04,-294.33 -529.71,-565.59 -831.96,-807.96l695.6 -1175.67 -1696.39 -1004.2 -717.86 1212.78c-348.18,-126.15 -712.08,-221.78 -1086.96,-283.62l0 -1423 -974.01 0 0 14285.31 974.01 0 0 -882.98c371.01,-60.2 731.21,-153.35 1076.32,-278.66l419.83 788.98 1740.5 -924.21 -440.11 -828.57c325.18,-259.71 624.13,-551.56 889.85,-871.45l822.05 523.54 1059.69 -1662.94 -885.65 -563.93c154.11,-400.68 267.94,-821.98 333.99,-1259.75l1104.27 36.27z"/>
   <path class="fil1" d="M10072.87 4691.05l0 1358.68c1624.27,6.61 2939.01,1324.09 2939.01,2950.74 0,1625.8 -1314.74,2944.12 -2939.01,2949.9l0 1358.68c2374.34,-6.59 4297.62,-1932.52 4297.62,-4308.58 0,-2376.09 -1923.28,-4303.65 -4297.62,-4309.42z"/>
   <path class="fil2 str0" d="M10072.87 4691.05l0 1358.68c1624.27,6.61 2939.01,1324.09 2939.01,2950.74 0,1625.8 -1314.74,2944.12 -2939.01,2949.9l0 1358.68c2374.34,-6.59 4297.62,-1932.52 4297.62,-4308.58 0,-2376.09 -1923.28,-4303.65 -4297.62,-4309.42z"/>
  </g>
 </g>
</svg>
